Coordinates
version=1
nRows=22
nColumns=21
inDegrees=yes

Units are S.I. units (second, meters, Newtons, ...)
Angles are in degrees.

endheader
time	Pelvis_pitch	Pelvis_roll	Pelvis_yaw	Pelvis_Tx	Pelvis_Ty	Pelvis_Tz	L_hip_flex-ext	L_hip_adb-add	L_hip_LAR	L_knee_flex-ext	L_crus_pron-sup	L_ankle_flex-ext	L_MTP_flex-ext	R_hip_flex-ext	R_hip_adb-add	R_hip_LAR	R_knee_flex-ext	R_crus_pron-sup	R_ankle_flex-ext	R_MTP_flex-ext
      0.12000000	    -10.64094134	     -5.25602634	     -2.52535341	     -0.14631037	      0.15314076	      0.07111861	      0.00000000	      0.00000000	      0.00000000	      0.00000000	      0.00000000	      0.00000000	      0.00000000	     36.80280852	     13.29938086	     74.39845191	    -67.36587184	    -14.54741377	    -51.92767231	    -10.54584639
      0.12010000	    -10.64039678	     -5.25592250	     -2.52441920	     -0.14616536	      0.15318038	      0.07115969	      0.00000000	      0.00000000	      0.00000000	      0.00000000	      0.00000000	      0.00000000	      0.00000000	     36.80210660	     13.29982907	     74.39805633	    -67.36631454	    -14.54691823	    -51.92782595	    -10.54638541
      0.12020000	    -10.63970309	     -5.25594767	     -2.52303632	     -0.14601936	      0.15321881	      0.07120264	      0.00000000	      0.00000000	      0.00000000	      0.00000000	      0.00000000	      0.00000000	      0.00000000	     36.80106045	     13.30040280	     74.39771090	    -67.36678222	    -14.54645408	    -51.92794191	    -10.54700490
      0.12030000	    -10.63888190	     -5.25608441	     -2.52125115	     -0.14587365	      0.15325786	      0.07124518	      0.00000000	      0.00000000	      0.00000000	      0.00000000	      0.00000000	      0.00000000	      0.00000000	     36.79971185	     13.30108285	     74.39741743	    -67.36729952	    -14.54602333	    -51.92801014	    -10.54771002
      0.12040000	    -10.63794387	     -5.25632016	     -2.51909379	     -0.14572829	      0.15329755	      0.07128723	      0.00000000	      0.00000000	      0.00000000	      0.00000000	      0.00000000	      0.00000000	      0.00000000	     36.79808860	     13.30185801	     74.39717803	    -67.36788394	    -14.54562768	    -51.92802344	    -10.54850444
      0.12050000	    -10.63490341	     -5.25722070	     -2.51087601	     -0.14559014	      0.15335902	      0.07131271	      0.00000000	      0.00000000	      0.00000000	      0.00000000	      0.00000000	      0.00000000	      0.00000000	     36.79173317	     13.30476484	     74.39651784	    -67.37016977	    -14.54431246	    -51.92775660	    -10.55176905
      0.12060000	    -10.63194044	     -5.25780256	     -2.50308331	     -0.14545461	      0.15340900	      0.07134567	      0.00000000	      0.00000000	      0.00000000	      0.00000000	      0.00000000	      0.00000000	      0.00000000	     36.78600469	     13.30746106	     74.39622577	    -67.37364741	    -14.54324363	    -51.92688672	    -10.55552762
      0.12070000	    -10.62901254	     -5.25817652	     -2.49536150	     -0.14531697	      0.15345667	      0.07138065	      0.00000000	      0.00000000	      0.00000000	      0.00000000	      0.00000000	      0.00000000	      0.00000000	     36.78057202	     13.30999296	     74.39622308	    -67.37810989	    -14.54238244	    -51.92551004	    -10.55974466
      0.12080000	    -10.62608774	     -5.25840988	     -2.48750797	     -0.14517836	      0.15350330	      0.07141654	      0.00000000	      0.00000000	      0.00000000	      0.00000000	      0.00000000	      0.00000000	      0.00000000	     36.77523901	     13.31239590	     74.39646559	    -67.38342264	    -14.54170646	    -51.92368593	    -10.56439588
      0.12090000	    -10.62314408	     -5.25854347	     -2.47940698	     -0.14503940	      0.15354942	      0.07145288	      0.00000000	      0.00000000	      0.00000000	      0.00000000	      0.00000000	      0.00000000	      0.00000000	     36.76989110	     13.31469158	     74.39692639	    -67.38950181	    -14.54120204	    -51.92145141	    -10.56946569
      0.12100000	    -10.62016629	     -5.25860240	     -2.47099342	     -0.14490034	      0.15359531	      0.07148945	      0.00000000	      0.00000000	      0.00000000	      0.00000000	      0.00000000	      0.00000000	      0.00000000	     36.76446137	     13.31689309	     74.39758834	    -67.39629382	    -14.54086050	    -51.91883032	    -10.57494394
      0.12110000	    -10.57749177	     -5.25298355	     -2.33979306	     -0.14492430	      0.15374732	      0.07141987	      0.00000000	      0.00000000	      0.00000000	      0.00000000	      0.00000000	      0.00000000	      0.00000000	     36.68311824	     13.34712521	     74.41208600	    -67.52453735	    -14.53812134	    -51.86653579	    -10.67414627
      0.12120000	    -10.57819153	     -5.25102014	     -2.34216732	     -0.14475654	      0.15378355	      0.07147178	      0.00000000	      0.00000000	      0.00000000	      0.00000000	      0.00000000	      0.00000000	      0.00000000	     36.68589128	     13.34569930	     74.41237074	    -67.52894655	    -14.53826676	    -51.86480987	    -10.67621409
      0.12130000	    -10.57862033	     -5.24937464	     -2.34363164	     -0.14460849	      0.15381147	      0.07152114	      0.00000000	      0.00000000	      0.00000000	      0.00000000	      0.00000000	      0.00000000	      0.00000000	     36.68786417	     13.34455314	     74.41264974	    -67.53305168	    -14.53840699	    -51.86317539	    -10.67829806
      0.12140000	    -10.58559333	     -5.22402636	     -2.35835599	     -0.14442753	      0.15376350	      0.07163188	      0.00000000	      0.00000000	      0.00000000	      0.00000000	      0.00000000	      0.00000000	      0.00000000	     36.71139114	     13.32764332	     74.41757235	    -67.60092991	    -14.54080001	    -51.83480048	    -10.71655992
      0.12150000	    -10.56506799	     -5.23293049	     -2.29612903	     -0.14436360	      0.15391360	      0.07160685	      0.00000000	      0.00000000	      0.00000000	      0.00000000	      0.00000000	      0.00000000	      0.00000000	     36.66143427	     13.33859484	     74.41495002	    -67.61763173	    -14.53826585	    -51.82755481	    -10.74382673
      0.12160000	    -10.55537091	     -5.21042677	     -2.30309806	     -0.14420072	      0.15386110	      0.07167558	      0.00000000	      0.00000000	      0.00000000	      0.00000000	      0.00000000	      0.00000000	      0.00000000	     36.68023605	     13.32918661	     74.42581155	    -67.70524113	    -14.54322112	    -51.78967587	    -10.79908957
      0.12170000	    -10.55398095	     -5.21119390	     -2.29817254	     -0.14406881	      0.15388507	      0.07172845	      0.00000000	      0.00000000	      0.00000000	      0.00000000	      0.00000000	      0.00000000	      0.00000000	     36.67615334	     13.32971319	     74.42525710	    -67.70562312	    -14.54295520	    -51.78956460	    -10.80066021
      0.12180000	    -10.55253281	     -5.21198197	     -2.29320329	     -0.14392742	      0.15393131	      0.07176775	      0.00000000	      0.00000000	      0.00000000	      0.00000000	      0.00000000	      0.00000000	      0.00000000	     36.67211123	     13.33026124	     74.42481137	    -67.70627979	    -14.54275439	    -51.78931660	    -10.80235884
      0.12190000	    -10.55098386	     -5.21280040	     -2.28811713	     -0.14378618	      0.15397676	      0.07180749	      0.00000000	      0.00000000	      0.00000000	      0.00000000	      0.00000000	      0.00000000	      0.00000000	     36.66803129	     13.33087521	     74.42447432	    -67.70715043	    -14.54261411	    -51.78894886	    -10.80417560
      0.12200000	    -10.54934386	     -5.21364468	     -2.28291395	     -0.14364494	      0.15402219	      0.07184696	      0.00000000	      0.00000000	      0.00000000	      0.00000000	      0.00000000	      0.00000000	      0.00000000	     36.66391346	     13.33154563	     74.42424108	    -67.70823604	    -14.54253305	    -51.78846161	    -10.80611147
      0.12210000	    -10.54761906	     -5.21451170	     -2.27759115	     -0.14350373	      0.15406758	      0.07188621	      0.00000000	      0.00000000	      0.00000000	      0.00000000	      0.00000000	      0.00000000	      0.00000000	     36.65975518	     13.33226625	     74.42410771	    -67.70953576	    -14.54251004	    -51.78785555	    -10.80816702
